<svg width="108" height="48" viewBox="0 0 108 48" fill="none" xmlns="http://www.w3.org/2000/svg">
<path d="M23.0746 34.6348C26.7746 36.8279 29.3443 32.8689 27.0976 30.1275C23.7237 26.01 21.8623 23.7107 20.8849 22.4937C20.6054 22.1449 20.2185 21.898 19.7844 21.7915C19.3503 21.685 18.8931 21.7248 18.4839 21.9047L6.70332 27.1018C5.86342 27.4723 5.38374 28.367 5.53894 29.2713C6.12083 32.6739 6.62363 35.6644 7.10106 38.9491C7.61209 42.4562 12.2676 43.2278 13.1422 39.0165" stroke="#50CD64" stroke-width="1.5" stroke-linecap="round" stroke-linejoin="round"/>
<path d="M16.2533 22.8887L17.0606 24.7186C17.2747 25.2039 17.2872 25.7544 17.0954 26.2489C16.9036 26.7435 16.5233 27.1416 16.038 27.3557L12.3783 28.9702C11.893 29.1843 11.3425 29.1968 10.8479 29.005C10.3534 28.8133 9.95526 28.4329 9.74116 27.9476L8.93391 26.1177M13.7774 37.0968C14.2627 36.8827 14.6431 36.4846 14.8349 35.9901C15.0266 35.4955 15.0141 34.945 14.8 34.4597C14.5859 33.9744 14.1878 33.594 13.6933 33.4023C13.1987 33.2105 12.6482 33.223 12.1629 33.4371C11.6776 33.6512 11.2972 34.0493 11.1055 34.5439C10.9137 35.0384 10.9262 35.5889 11.1403 36.0742C11.3544 36.5595 11.7525 36.9399 12.2471 37.1317C12.7416 37.3235 13.2921 37.3109 13.7774 37.0968ZM21.0968 33.8678C21.5821 33.6537 21.9625 33.2556 22.1543 32.7611C22.346 32.2665 22.3335 31.716 22.1194 31.2307C21.9053 30.7454 21.5072 30.365 21.0126 30.1733C20.5181 29.9815 19.9676 29.994 19.4823 30.2081C18.997 30.4222 18.6166 30.8203 18.4248 31.3149C18.2331 31.8094 18.2456 32.3599 18.4597 32.8452C18.6738 33.3305 19.0719 33.7109 19.5665 33.9027C20.061 34.0945 20.6115 34.0819 21.0968 33.8678Z" stroke="#50CD64" stroke-width="1.5" stroke-linecap="round" stroke-linejoin="round"/>
<path d="M17.2969 24.2832C15.7018 24.2832 14.2533 23.987 12.9512 23.3945C11.6361 22.8086 10.5846 21.8971 9.79688 20.6602C9.00911 19.4232 8.61523 17.8639 8.61523 15.9824C8.61523 14.485 8.92448 13.1439 9.54297 11.959C10.1615 10.7741 11.0599 9.84635 12.2383 9.17578C13.4232 8.4987 14.8164 8.16016 16.418 8.16016C17.0951 8.16016 17.7526 8.27409 18.3906 8.50195C19.0352 8.72982 19.543 9.06185 19.9141 9.49805L20.2363 8.46289H23.6152V14.1953H20.5977C20.3958 13.375 20.0085 12.7533 19.4355 12.3301C18.8626 11.9069 18.2637 11.6953 17.6387 11.6953C16.597 11.6953 15.7734 12.0762 15.168 12.8379C14.5625 13.5996 14.2598 14.6478 14.2598 15.9824C14.2598 17.3301 14.5592 18.388 15.1582 19.1562C15.7572 19.918 16.6035 20.2988 17.6973 20.2988C17.9577 20.2988 18.2376 20.2728 18.5371 20.2207C18.7585 20.1816 18.9668 20.1296 19.1621 20.0645C19.3574 19.9928 19.4876 19.9505 19.5527 19.9375V18.5605H17.6777V15.6602H23.9375V22.6426C22.9349 23.1764 21.8607 23.5833 20.7148 23.8633C19.569 24.1432 18.4297 24.2832 17.2969 24.2832ZM29.1719 24.1758C28.5078 24.1758 27.9056 24.0456 27.3652 23.7852C26.8184 23.5312 26.3822 23.1634 26.0566 22.6816C25.7311 22.1999 25.5684 21.64 25.5684 21.002C25.5684 20.3118 25.7604 19.7259 26.1445 19.2441C26.5286 18.7754 27.0299 18.4238 27.6484 18.1895C28.2734 17.9551 28.9473 17.8379 29.6699 17.8379C30.5228 17.8379 31.3431 17.9648 32.1309 18.2188V17.7793C32.1309 17.2585 31.9095 16.8613 31.4668 16.5879C31.0306 16.3145 30.4382 16.1777 29.6895 16.1777C29.3704 16.1777 29.0124 16.2168 28.6152 16.2949C28.2181 16.373 27.8307 16.4805 27.4531 16.6172C27.0755 16.7539 26.7467 16.9069 26.4668 17.0762L26.1836 16.959V14.1172C26.9714 13.8372 27.7754 13.6387 28.5957 13.5215C29.416 13.3978 30.181 13.3359 30.8906 13.3359C34.849 13.3359 36.8281 14.4492 36.8281 16.6758V21.0605H37.7461V24H32.7461L32.3066 22.3984C32.0267 22.9453 31.5905 23.3783 30.998 23.6973C30.4056 24.0163 29.7969 24.1758 29.1719 24.1758ZM31.0078 21.6758C31.2227 21.6758 31.4408 21.64 31.6621 21.5684C31.89 21.4967 32.0462 21.4219 32.1309 21.3438V19.7031C32.0332 19.6901 31.877 19.651 31.6621 19.5859C31.4408 19.5273 31.2487 19.498 31.0859 19.498C30.7409 19.498 30.4642 19.6055 30.2559 19.8203C30.054 20.0352 29.9531 20.3216 29.9531 20.6797C29.9531 20.9466 30.0475 21.181 30.2363 21.3828C30.4316 21.5781 30.6888 21.6758 31.0078 21.6758ZM58.9473 17.3594V21.1777H60.3047V24H54.2695V17.3398C54.2695 17.0599 54.1784 16.8125 53.9961 16.5977C53.8138 16.3828 53.5957 16.2754 53.3418 16.2754C52.8665 16.2754 52.5671 16.513 52.4434 16.9883C52.3132 17.4766 52.248 18.1602 52.248 19.0391V24H47.5605V17.3398C47.5605 17.0599 47.4694 16.8125 47.2871 16.5977C47.1113 16.3828 46.8965 16.2754 46.6426 16.2754C46.1673 16.2754 45.8678 16.513 45.7441 16.9883C45.6139 17.4766 45.5488 18.1602 45.5488 19.0391V21.1777H45.5684V24H39.4648V21.1777H40.8809V16.5586H39.4648V13.9219L45.5488 13.3359V14.8008C45.998 14.2669 46.5091 13.8893 47.082 13.668C47.6549 13.4466 48.3027 13.3359 49.0254 13.3359C50.5033 13.3359 51.4701 13.9642 51.9258 15.2207C52.4076 14.5371 52.9609 14.0521 53.5859 13.7656C54.2109 13.4792 54.9238 13.3359 55.7246 13.3359C57.873 13.3359 58.9473 14.6771 58.9473 17.3594ZM67.1113 24.1758C65.9004 24.1758 64.849 23.9512 63.957 23.502C63.0586 23.0592 62.3685 22.4245 61.8867 21.5977C61.4115 20.7708 61.1738 19.804 61.1738 18.6973C61.1738 17.6035 61.4082 16.653 61.877 15.8457C62.3392 15.0449 62.9935 14.4264 63.8398 13.9902C64.6862 13.554 65.679 13.3359 66.8184 13.3359C67.8665 13.3359 68.791 13.541 69.5918 13.9512C70.3926 14.3678 71.0111 14.957 71.4473 15.7188C71.89 16.4805 72.1113 17.3691 72.1113 18.3848C72.1113 18.7363 72.0592 19.0684 71.9551 19.3809H65.8711C65.8711 19.9928 66.1022 20.4844 66.5645 20.8555C67.0267 21.2201 67.5833 21.4023 68.2344 21.4023C68.7292 21.4023 69.2728 21.3177 69.8652 21.1484C70.4577 20.9727 71.0534 20.7025 71.6523 20.3379L71.8184 20.3965V23.0234C71.1478 23.4076 70.4577 23.6973 69.748 23.8926C69.0449 24.0814 68.166 24.1758 67.1113 24.1758ZM65.8711 17.3789V17.6621H68.3711V17.457C68.3711 16.9948 68.2637 16.5977 68.0488 16.2656C67.8405 15.9271 67.528 15.7578 67.1113 15.7578C66.7663 15.7578 66.4733 15.9303 66.2324 16.2754C65.9915 16.6139 65.8711 16.9818 65.8711 17.3789Z" fill="#50CD64"/>
<path d="M74.8203 25.6309C74.8203 25.1979 74.9274 24.8037 75.1416 24.4482C75.3604 24.0928 75.652 23.8102 76.0166 23.6006C76.3857 23.3864 76.7913 23.2793 77.2334 23.2793H82.2646V24.7148H77.2334C76.9691 24.7148 76.7412 24.8083 76.5498 24.9951C76.3584 25.182 76.2627 25.4076 76.2627 25.6719V26.3418C76.2627 26.5833 76.3584 26.7907 76.5498 26.9639C76.7412 27.137 76.9691 27.2236 77.2334 27.2236H80.3301C80.7767 27.2236 81.1823 27.3307 81.5469 27.5449C81.9115 27.7546 82.2008 28.0394 82.415 28.3994C82.6338 28.7549 82.7432 29.1491 82.7432 29.582V30.6416C82.7432 31.0745 82.6338 31.471 82.415 31.8311C82.2008 32.1865 81.9115 32.4714 81.5469 32.6855C81.1823 32.8952 80.7767 33 80.3301 33H74.8271V31.5576H80.3301C80.599 31.5576 80.8268 31.4688 81.0137 31.291C81.2051 31.1087 81.3008 30.89 81.3008 30.6348V29.5889C81.3008 29.3337 81.2051 29.1149 81.0137 28.9326C80.8268 28.7503 80.599 28.6592 80.3301 28.6592H77.2334C76.7913 28.6592 76.3857 28.5566 76.0166 28.3516C75.652 28.1419 75.3604 27.8617 75.1416 27.5107C74.9274 27.1598 74.8203 26.7725 74.8203 26.3486V25.6309ZM84.3906 23.2793H85.833V25.918H88.0615C88.5537 25.918 89.0003 26.0342 89.4014 26.2666C89.807 26.4945 90.1283 26.8021 90.3652 27.1895C90.6068 27.5723 90.7275 27.9984 90.7275 28.4678V33H89.2852V28.4883C89.2852 28.1875 89.1621 27.9255 88.916 27.7021C88.6745 27.4743 88.3896 27.3604 88.0615 27.3604H85.833V33H84.3906V23.2793ZM92.3066 28.4746C92.3066 28.0052 92.4206 27.5768 92.6484 27.1895C92.8809 26.8021 93.1908 26.4945 93.5781 26.2666C93.9655 26.0342 94.3939 25.918 94.8633 25.918H96.4082C96.8776 25.918 97.306 26.0342 97.6934 26.2666C98.0807 26.4945 98.3883 26.8021 98.6162 27.1895C98.8486 27.5768 98.9648 28.0052 98.9648 28.4746V30.4434C98.9648 30.9128 98.8486 31.3411 98.6162 31.7285C98.3883 32.1159 98.0807 32.4258 97.6934 32.6582C97.306 32.8861 96.8776 33 96.4082 33H94.8633C94.3939 33 93.9655 32.8861 93.5781 32.6582C93.1908 32.4258 92.8809 32.1159 92.6484 31.7285C92.4206 31.3411 92.3066 30.9128 92.3066 30.4434V28.4746ZM93.749 30.4297C93.749 30.7396 93.8584 31.0062 94.0771 31.2295C94.2959 31.4482 94.5579 31.5576 94.8633 31.5576H96.4082C96.7181 31.5576 96.9801 31.4482 97.1943 31.2295C97.4131 31.0062 97.5225 30.7396 97.5225 30.4297V28.4883C97.5225 28.1784 97.4131 27.9141 97.1943 27.6953C96.9801 27.472 96.7181 27.3604 96.4082 27.3604H94.8633C94.5579 27.3604 94.2959 27.472 94.0771 27.6953C93.8584 27.9141 93.749 28.1784 93.749 28.4883V30.4297ZM100.469 27.3604C100.469 26.9639 100.61 26.6243 100.893 26.3418C101.175 26.0592 101.515 25.918 101.911 25.918H104.42C104.889 25.918 105.318 26.0342 105.705 26.2666C106.092 26.4945 106.4 26.7998 106.628 27.1826C106.86 27.5654 106.977 27.9915 106.977 28.4609V30.4434C106.977 30.9128 106.86 31.3411 106.628 31.7285C106.4 32.1159 106.092 32.4258 105.705 32.6582C105.318 32.8861 104.889 33 104.42 33H102.731V31.5576H104.42C104.73 31.5576 104.992 31.4482 105.206 31.2295C105.425 31.0062 105.534 30.7396 105.534 30.4297V28.4746C105.534 28.1647 105.425 27.9027 105.206 27.6885C104.992 27.4697 104.73 27.3604 104.42 27.3604H101.911V35.6387H100.469V27.3604Z" fill="#50CD64"/>
</svg>
